<svg width="205" height="224" viewBox="0 0 205 224" fill="none" xmlns="http://www.w3.org/2000/svg">
<path fill-rule="evenodd" clip-rule="evenodd" d="M106.383 223.678C82.7922 223.59 61.5268 216.068 43.0628 201.27C1.82151 168.216 -11.2318 113.765 10.1588 65.4465C41.6308 -5.65616 138.218 -22.6268 191.662 33.4265C195.687 37.6492 196.267 40.4905 191.594 44.3198C188.127 47.1625 185.024 50.4838 181.994 53.8065C178.604 57.5225 176.063 57.4932 171.987 54.0212C127.04 15.6892 58.0055 29.0225 30.2788 81.1772C-2.66249 143.14 36.5375 216.27 106.383 223.678Z" fill="#4391CF"/>
<path fill-rule="evenodd" clip-rule="evenodd" d="M112.358 34.4897C100.318 36.803 89.8175 39.635 80.0909 45.0084C33.4709 70.767 24.1749 132.502 61.2909 170.615C89.9175 200.01 139.222 203.734 171.859 178.599C177.283 174.423 180.731 173.694 185.895 179.027C196.851 190.344 197.126 190.04 184.842 200.055C138.964 237.462 54.8015 228.867 27.4895 158.734C13.9402 123.94 25.6109 81.2804 54.7335 57.0977C68.7735 45.4404 84.5989 38.047 102.38 34.515C105.232 33.9497 108.058 33.2417 112.358 34.4897Z" fill="#2C5787"/>
<path d="M198.479 107.92H204.923L190.108 79.292L174.653 107.92H181.979L181.973 108.784C181.939 112.987 181.489 117.125 180.633 121.088L180.597 121.271C180.449 122.088 180.212 122.972 179.961 123.907C179.845 124.341 179.729 124.777 179.617 125.212C179.495 125.601 179.376 125.991 179.256 126.38C178.961 127.337 178.684 128.24 178.369 129.043L178.293 129.248C177.521 131.465 176.508 133.769 175.009 136.711L174.528 137.589C174.031 138.505 173.56 139.369 173.047 140.161C172.889 140.412 172.737 140.66 172.585 140.911C172.395 141.224 172.204 141.544 172.028 141.808L170.676 143.776C170.311 144.335 169.824 144.957 169.311 145.621C169.004 146.015 168.701 146.407 168.408 146.796C168.135 147.116 167.867 147.44 167.597 147.761C167.051 148.412 166.507 149.067 165.889 149.724C163.287 152.549 160.537 155.049 157.681 157.221C157.465 157.381 157.249 157.543 157.031 157.7C156.703 157.943 156.369 158.165 156.04 158.399C146.159 165.179 133.999 168.892 121.448 168.892C104.515 168.892 88.3545 162.268 77.1132 150.727C64.1279 137.391 58.2199 119.344 60.9025 101.211C63.5985 82.9947 74.5505 67.3507 90.9492 58.2867C98.7105 54.0013 106.983 52.028 114.767 50.5347L117.396 50.028L114.824 49.2813C113.568 48.92 112.383 48.7413 111.196 48.7413C109.815 48.7413 108.632 48.9773 107.488 49.2067L107.095 49.2893C93.5319 51.9827 81.8425 57.5227 71.3599 66.2267C49.3839 84.4747 40.7825 116.581 50.9052 142.572C55.4505 154.245 61.9972 163.4 69.6212 170.429L69.5265 170.568L70.3905 171.141C85.4785 184.643 104.616 189.991 120.94 189.991C132.305 189.991 143.293 187.66 153.117 183.281L153.115 183.289C153.196 183.252 153.272 183.211 153.355 183.172C158.997 180.637 164.261 177.425 168.979 173.581L169.087 173.492C172.333 170.841 174.343 169.193 175.336 167.703C185.933 156.855 191.693 144.135 194.815 133.209C195.04 132.491 195.253 131.775 195.452 131.08L195.808 129.863L195.896 129.528C196.001 129.079 196.115 128.629 196.225 128.183C196.525 126.979 196.835 125.736 197.065 124.381C197.972 119.772 198.423 115.017 198.465 110.224C198.5 109.003 198.487 108.208 198.479 107.92Z" fill="#EF2E32"/>
</svg>
