<svg width="194" height="175" viewBox="0 0 194 175" fill="none" xmlns="http://www.w3.org/2000/svg">
<path d="M9.18286 146.679C9.04956 147.82 8.62745 148.701 7.91652 149.323C7.21052 149.94 6.27002 150.249 5.09501 150.249C3.82126 150.249 2.79929 149.792 2.02912 148.879C1.26388 147.966 0.881259 146.744 0.881259 145.213V144.176C0.881259 143.174 1.05899 142.293 1.41446 141.533C1.77486 140.772 2.28337 140.19 2.94 139.785C3.59662 139.375 4.35692 139.17 5.2209 139.17C6.36629 139.17 7.28458 139.491 7.97576 140.133C8.66694 140.77 9.06931 141.654 9.18286 142.784H7.7536C7.63017 141.925 7.3611 141.303 6.94639 140.918C6.53662 140.533 5.96146 140.34 5.2209 140.34C4.31249 140.34 3.59909 140.676 3.0807 141.347C2.56725 142.019 2.31053 142.974 2.31053 144.213V145.258C2.31053 146.428 2.55491 147.358 3.04368 148.049C3.53244 148.741 4.21622 149.086 5.09501 149.086C5.88493 149.086 6.48972 148.909 6.90936 148.553C7.33395 148.193 7.61536 147.568 7.7536 146.679H9.18286ZM19.4247 145.058C19.4247 146.114 19.247 147.037 18.8915 147.827C18.5361 148.612 18.0325 149.212 17.3808 149.627C16.7291 150.042 15.9688 150.249 15.0999 150.249C14.2507 150.249 13.4978 150.042 12.8412 149.627C12.1846 149.207 11.6736 148.612 11.3083 147.842C10.9479 147.067 10.7627 146.171 10.7528 145.154V144.376C10.7528 143.34 10.933 142.424 11.2934 141.629C11.6538 140.834 12.1624 140.227 12.819 139.807C13.4805 139.383 14.2359 139.17 15.0851 139.17C15.9491 139.17 16.7094 139.38 17.366 139.8C18.0275 140.214 18.5361 140.819 18.8915 141.614C19.247 142.404 19.4247 143.325 19.4247 144.376V145.058ZM18.0103 144.362C18.0103 143.083 17.7535 142.103 17.2401 141.422C16.7266 140.735 16.0083 140.392 15.0851 140.392C14.1865 140.392 13.4781 140.735 12.9597 141.422C12.4462 142.103 12.1821 143.051 12.1673 144.265V145.058C12.1673 146.297 12.4265 147.272 12.9449 147.983C13.4682 148.689 14.1865 149.042 15.0999 149.042C16.0182 149.042 16.7291 148.709 17.2327 148.042C17.7363 147.371 17.9955 146.41 18.0103 145.161V144.362ZM29.8443 150.101H28.415L22.9868 141.792V150.101H21.5575V139.318H22.9868L28.4298 147.664V139.318H29.8443V150.101ZM35.5466 145.295C34.3271 144.944 33.4385 144.515 32.8806 144.006C32.3276 143.493 32.0512 142.861 32.0512 142.11C32.0512 141.261 32.3893 140.56 33.0657 140.007C33.747 139.449 34.6308 139.17 35.7169 139.17C36.4575 139.17 37.1165 139.313 37.6942 139.6C38.2767 139.886 38.726 140.281 39.042 140.785C39.3629 141.288 39.5233 141.839 39.5233 142.436H38.0941C38.0941 141.784 37.8867 141.273 37.472 140.903C37.0573 140.528 36.4723 140.34 35.7169 140.34C35.0158 140.34 34.4678 140.496 34.0729 140.807C33.6828 141.113 33.4878 141.54 33.4878 142.088C33.4878 142.527 33.673 142.9 34.0432 143.206C34.4185 143.507 35.0529 143.784 35.9465 144.036C36.845 144.287 37.5461 144.566 38.0496 144.873C38.5582 145.174 38.9334 145.527 39.1753 145.932C39.4221 146.336 39.5456 146.813 39.5456 147.361C39.5456 148.235 39.2049 148.936 38.5236 149.464C37.8423 149.987 36.9314 150.249 35.791 150.249C35.0504 150.249 34.3592 150.108 33.7174 149.827C33.0756 149.54 32.5794 149.15 32.2289 148.657C31.8833 148.163 31.7105 147.603 31.7105 146.976H33.1398C33.1398 147.627 33.3792 148.143 33.8581 148.523C34.3419 148.899 34.9862 149.086 35.791 149.086C36.5414 149.086 37.1165 148.933 37.5164 148.627C37.9163 148.321 38.1163 147.904 38.1163 147.376C38.1163 146.847 37.9312 146.44 37.5609 146.154C37.1906 145.862 36.5192 145.576 35.5466 145.295ZM48.9654 139.318V146.65C48.9605 147.667 48.6396 148.499 48.0027 149.146C47.3707 149.792 46.5117 150.155 45.4256 150.234L45.0479 150.249C43.8679 150.249 42.9274 149.931 42.2264 149.294C41.5253 148.657 41.1698 147.78 41.16 146.665V139.318H42.567V146.62C42.567 147.4 42.7818 148.008 43.2113 148.442C43.6408 148.872 44.253 149.086 45.0479 149.086C45.8526 149.086 46.4673 148.872 46.8919 148.442C47.3214 148.012 47.5361 147.408 47.5361 146.628V139.318H48.9654ZM52.6385 148.938H57.7484V150.101H51.2093V139.318H52.6385V148.938ZM64.7762 140.488H61.3104V150.101H59.896V140.488H56.4376V139.318H64.7762V140.488ZM74.4627 145.058C74.4627 146.114 74.2849 147.037 73.9295 147.827C73.574 148.612 73.0704 149.212 72.4187 149.627C71.767 150.042 71.0067 150.249 70.1378 150.249C69.2887 150.249 68.5358 150.042 67.8791 149.627C67.2225 149.207 66.7115 148.612 66.3462 147.842C65.9858 147.067 65.8007 146.171 65.7908 145.154V144.376C65.7908 143.34 65.971 142.424 66.3314 141.629C66.6918 140.834 67.2003 140.227 67.8569 139.807C68.5185 139.383 69.2738 139.17 70.123 139.17C70.987 139.17 71.7473 139.38 72.4039 139.8C73.0655 140.214 73.574 140.819 73.9295 141.614C74.2849 142.404 74.4627 143.325 74.4627 144.376V145.058ZM73.0482 144.362C73.0482 143.083 72.7915 142.103 72.278 141.422C71.7646 140.735 71.0462 140.392 70.123 140.392C69.2245 140.392 68.516 140.735 67.9976 141.422C67.4842 142.103 67.22 143.051 67.2052 144.265V145.058C67.2052 146.297 67.4644 147.272 67.9828 147.983C68.5061 148.689 69.2245 149.042 70.1378 149.042C71.0561 149.042 71.767 148.709 72.2706 148.042C72.7742 147.371 73.0334 146.41 73.0482 145.161V144.362ZM80.55 145.739H78.0173V150.101H76.588V139.318H80.1575C81.372 139.318 82.3051 139.595 82.9568 140.148C83.6134 140.701 83.9417 141.505 83.9417 142.562C83.9417 143.233 83.7591 143.818 83.3937 144.317C83.0333 144.816 82.5298 145.188 81.883 145.435L84.4157 150.012V150.101H82.8902L80.55 145.739ZM78.0173 144.576H80.2019C80.9079 144.576 81.4683 144.394 81.883 144.028C82.3027 143.663 82.5125 143.174 82.5125 142.562C82.5125 141.895 82.3125 141.385 81.9126 141.029C81.5177 140.674 80.945 140.493 80.1945 140.488H78.0173V144.576ZM92.036 145.117H87.3631V148.938H92.7914V150.101H85.9412V139.318H92.7173V140.488H87.3631V143.954H92.036V145.117ZM97.7383 145.295C96.5188 144.944 95.6301 144.515 95.0723 144.006C94.5193 143.493 94.2428 142.861 94.2428 142.11C94.2428 141.261 94.581 140.56 95.2574 140.007C95.9387 139.449 96.8224 139.17 97.9086 139.17C98.6491 139.17 99.3082 139.313 99.8859 139.6C100.468 139.886 100.918 140.281 101.234 140.785C101.555 141.288 101.715 141.839 101.715 142.436H100.286C100.286 141.784 100.078 141.273 99.6637 140.903C99.249 140.528 98.6639 140.34 97.9086 140.34C97.2075 140.34 96.6595 140.496 96.2646 140.807C95.8745 141.113 95.6795 141.54 95.6795 142.088C95.6795 142.527 95.8647 142.9 96.2349 143.206C96.6101 143.507 97.2446 143.784 98.1382 144.036C99.0367 144.287 99.7378 144.566 100.241 144.873C100.75 145.174 101.125 145.527 101.367 145.932C101.614 146.336 101.737 146.813 101.737 147.361C101.737 148.235 101.397 148.936 100.715 149.464C100.034 149.987 99.1231 150.249 97.9826 150.249C97.2421 150.249 96.5509 150.108 95.9091 149.827C95.2673 149.54 94.7711 149.15 94.4206 148.657C94.075 148.163 93.9022 147.603 93.9022 146.976H95.3315C95.3315 147.627 95.5709 148.143 96.0498 148.523C96.5336 148.899 97.1779 149.086 97.9826 149.086C98.7331 149.086 99.3082 148.933 99.7081 148.627C100.108 148.321 100.308 147.904 100.308 147.376C100.308 146.847 100.123 146.44 99.7526 146.154C99.3823 145.862 98.7108 145.576 97.7383 145.295ZM107.328 150.101V139.318H110.372C111.31 139.318 112.14 139.526 112.86 139.94C113.581 140.355 114.137 140.945 114.527 141.71C114.922 142.476 115.122 143.354 115.126 144.347V145.035C115.126 146.052 114.929 146.944 114.534 147.709C114.144 148.474 113.584 149.062 112.853 149.471C112.127 149.881 111.281 150.091 110.313 150.101H107.328ZM108.75 140.488V148.938H110.246C111.342 148.938 112.194 148.598 112.801 147.916C113.413 147.235 113.719 146.265 113.719 145.006V144.376C113.719 143.152 113.431 142.202 112.853 141.525C112.28 140.844 111.466 140.498 110.409 140.488H108.75ZM123.376 145.117H118.703V148.938H124.132V150.101H117.281V139.318H124.058V140.488H118.703V143.954H123.376V145.117ZM131.848 145.339H127.323V150.101H125.902V139.318H132.581V140.488H127.323V144.176H131.848V145.339ZM135.81 150.101H134.388V139.318H135.81V150.101ZM146.704 150.101H145.274L139.846 141.792V150.101H138.417V139.318H139.846L145.289 147.664V139.318H146.704V150.101ZM150.754 150.101H149.333V139.318H150.754V150.101ZM153.361 150.101V139.318H156.405C157.343 139.318 158.172 139.526 158.893 139.94C159.614 140.355 160.169 140.945 160.559 141.71C160.954 142.476 161.154 143.354 161.159 144.347V145.035C161.159 146.052 160.962 146.944 160.567 147.709C160.177 148.474 159.616 149.062 158.886 149.471C158.16 149.881 157.313 150.091 156.346 150.101H153.361ZM154.783 140.488V148.938H156.279C157.375 148.938 158.227 148.598 158.834 147.916C159.446 147.235 159.752 146.265 159.752 145.006V144.376C159.752 143.152 159.463 142.202 158.886 141.525C158.313 140.844 157.498 140.498 156.442 140.488H154.783ZM171.608 145.058C171.608 146.114 171.431 147.037 171.075 147.827C170.72 148.612 170.216 149.212 169.565 149.627C168.913 150.042 168.153 150.249 167.284 150.249C166.434 150.249 165.682 150.042 165.025 149.627C164.368 149.207 163.857 148.612 163.492 147.842C163.132 147.067 162.946 146.171 162.937 145.154V144.376C162.937 143.34 163.117 142.424 163.477 141.629C163.838 140.834 164.346 140.227 165.003 139.807C165.664 139.383 166.42 139.17 167.269 139.17C168.133 139.17 168.893 139.38 169.55 139.8C170.211 140.214 170.72 140.819 171.075 141.614C171.431 142.404 171.608 143.325 171.608 144.376V145.058ZM170.194 144.362C170.194 143.083 169.937 142.103 169.424 141.422C168.91 140.735 168.192 140.392 167.269 140.392C166.37 140.392 165.662 140.735 165.143 141.422C164.63 142.103 164.366 143.051 164.351 144.265V145.058C164.351 146.297 164.61 147.272 165.129 147.983C165.652 148.689 166.37 149.042 167.284 149.042C168.202 149.042 168.913 148.709 169.416 148.042C169.92 147.371 170.179 146.41 170.194 145.161V144.362ZM176.918 145.295C175.699 144.944 174.81 144.515 174.252 144.006C173.699 143.493 173.423 142.861 173.423 142.11C173.423 141.261 173.761 140.56 174.437 140.007C175.119 139.449 176.002 139.17 177.089 139.17C177.829 139.17 178.488 139.313 179.066 139.6C179.648 139.886 180.098 140.281 180.414 140.785C180.735 141.288 180.895 141.839 180.895 142.436H179.466C179.466 141.784 179.258 141.273 178.844 140.903C178.429 140.528 177.844 140.34 177.089 140.34C176.388 140.34 175.84 140.496 175.445 140.807C175.055 141.113 174.86 141.54 174.86 142.088C174.86 142.527 175.045 142.9 175.415 143.206C175.79 143.507 176.425 143.784 177.318 144.036C178.217 144.287 178.918 144.566 179.421 144.873C179.93 145.174 180.305 145.527 180.547 145.932C180.794 146.336 180.917 146.813 180.917 147.361C180.917 148.235 180.577 148.936 179.895 149.464C179.214 149.987 178.303 150.249 177.163 150.249C176.422 150.249 175.731 150.108 175.089 149.827C174.447 149.54 173.951 149.15 173.601 148.657C173.255 148.163 173.082 147.603 173.082 146.976H174.511C174.511 147.627 174.751 148.143 175.23 148.523C175.714 148.899 176.358 149.086 177.163 149.086C177.913 149.086 178.488 148.933 178.888 148.627C179.288 148.321 179.488 147.904 179.488 147.376C179.488 146.847 179.303 146.44 178.933 146.154C178.562 145.862 177.891 145.576 176.918 145.295Z" fill="white"/>
<path d="M10.4808 162.61H3.81408V168.062H11.5584V169.72H1.78554V154.337H11.4528V156.007H3.81408V160.951H10.4808V162.61ZM16.1227 168.062H23.4127V169.72H14.0836V154.337H16.1227V168.062ZM39.5882 165.705H33.1434L31.6959 169.72H29.604L35.4783 154.337H37.2533L43.1382 169.72H41.0568L39.5882 165.705ZM33.7562 164.036H38.986L36.3658 156.841L33.7562 164.036ZM47.2481 168.062H54.5381V169.72H45.209V154.337H47.2481V168.062ZM64.5646 156.007H59.62V169.72H57.6021V156.007H52.6681V154.337H64.5646V156.007ZM74.496 165.705H68.0511L66.6037 169.72H64.5118L70.3861 154.337H72.1611L78.0459 169.72H75.9646L74.496 165.705ZM68.6639 164.036H73.8938L71.2736 156.841L68.6639 164.036ZM85.4839 169.72V154.337H89.8263C91.1645 154.337 92.3478 154.633 93.3762 155.225C94.4046 155.816 95.1969 156.658 95.7534 157.75C96.3169 158.842 96.6021 160.095 96.6092 161.511V162.494C96.6092 163.945 96.3274 165.216 95.764 166.308C95.2075 167.399 94.4081 168.238 93.3656 168.822C92.3302 169.407 91.1223 169.706 89.7417 169.72H85.4839ZM87.5124 156.007V168.062H89.6466C91.2103 168.062 92.4253 167.576 93.2917 166.604C94.1651 165.632 94.6018 164.247 94.6018 162.451V161.553C94.6018 159.806 94.1897 158.451 93.3656 157.486C92.5486 156.514 91.3864 156.021 89.8791 156.007H87.5124ZM101.86 169.72H99.8316V154.337H101.86V169.72ZM111.221 163.497H107.608V169.72H105.569V154.337H110.661C112.394 154.337 113.725 154.732 114.655 155.521C115.592 156.309 116.06 157.457 116.06 158.965C116.06 159.923 115.799 160.757 115.278 161.469C114.764 162.18 114.045 162.712 113.123 163.064L116.736 169.593V169.72H114.56L111.221 163.497ZM107.608 161.839H110.724C111.732 161.839 112.531 161.578 113.123 161.057C113.721 160.536 114.021 159.838 114.021 158.965C114.021 158.014 113.736 157.285 113.165 156.778C112.602 156.271 111.784 156.014 110.714 156.007H107.608V161.839ZM127.608 162.61H120.941V168.062H128.685V169.72H118.913V154.337H128.58V156.007H120.941V160.951H127.608V162.61ZM142.526 164.839C142.336 166.466 141.734 167.723 140.719 168.611C139.712 169.491 138.37 169.932 136.694 169.932C134.877 169.932 133.419 169.28 132.32 167.977C131.228 166.674 130.682 164.931 130.682 162.747V161.268C130.682 159.838 130.936 158.581 131.443 157.496C131.957 156.412 132.683 155.58 133.619 155.003C134.556 154.418 135.641 154.126 136.874 154.126C138.508 154.126 139.818 154.584 140.804 155.499C141.79 156.408 142.364 157.669 142.526 159.282H140.487C140.311 158.056 139.927 157.169 139.335 156.619C138.751 156.07 137.93 155.795 136.874 155.795C135.578 155.795 134.56 156.274 133.82 157.232C133.088 158.19 132.721 159.553 132.721 161.321V162.811C132.721 164.48 133.07 165.808 133.767 166.794C134.465 167.78 135.44 168.273 136.694 168.273C137.821 168.273 138.684 168.019 139.282 167.512C139.888 166.998 140.29 166.107 140.487 164.839H142.526ZM156.62 164.839C156.43 166.466 155.828 167.723 154.813 168.611C153.806 169.491 152.464 169.932 150.788 169.932C148.971 169.932 147.513 169.28 146.414 167.977C145.322 166.674 144.776 164.931 144.776 162.747V161.268C144.776 159.838 145.03 158.581 145.537 157.496C146.051 156.412 146.777 155.58 147.714 155.003C148.65 154.418 149.735 154.126 150.968 154.126C152.602 154.126 153.912 154.584 154.898 155.499C155.884 156.408 156.458 157.669 156.62 159.282H154.581C154.405 158.056 154.021 157.169 153.429 156.619C152.845 156.07 152.024 155.795 150.968 155.795C149.672 155.795 148.654 156.274 147.914 157.232C147.182 158.19 146.816 159.553 146.816 161.321V162.811C146.816 164.48 147.164 165.808 147.861 166.794C148.559 167.78 149.534 168.273 150.788 168.273C151.915 168.273 152.778 168.019 153.377 167.512C153.982 166.998 154.384 166.107 154.581 164.839H156.62ZM161.575 169.72H159.547V154.337H161.575V169.72ZM161.512 150.09H163.878L161.047 153.196H159.473L161.512 150.09ZM177.127 162.525C177.127 164.033 176.874 165.35 176.367 166.477C175.86 167.597 175.141 168.452 174.211 169.044C173.282 169.636 172.197 169.932 170.957 169.932C169.746 169.932 168.672 169.636 167.735 169.044C166.798 168.445 166.069 167.597 165.548 166.498C165.034 165.392 164.77 164.114 164.755 162.663V161.553C164.755 160.074 165.013 158.768 165.527 157.634C166.041 156.5 166.766 155.633 167.703 155.034C168.647 154.429 169.725 154.126 170.936 154.126C172.169 154.126 173.253 154.425 174.19 155.024C175.134 155.616 175.86 156.478 176.367 157.612C176.874 158.739 177.127 160.053 177.127 161.553V162.525ZM175.109 161.532C175.109 159.708 174.743 158.31 174.011 157.338C173.278 156.359 172.253 155.869 170.936 155.869C169.654 155.869 168.643 156.359 167.904 157.338C167.171 158.31 166.795 159.662 166.773 161.395V162.525C166.773 164.293 167.143 165.684 167.883 166.699C168.629 167.706 169.654 168.209 170.957 168.209C172.267 168.209 173.282 167.734 174 166.783C174.719 165.825 175.088 164.455 175.109 162.673V161.532ZM191.993 169.72H189.954L182.209 157.866V169.72H180.17V154.337H182.209L189.975 166.244V154.337H191.993V169.72Z" fill="white"/>
<path fill-rule="evenodd" clip-rule="evenodd" d="M98.8137 125.949C85.5311 125.898 73.5577 121.662 63.1604 113.331C39.9391 94.7192 32.5884 64.0592 44.6324 36.8512C62.3524 -3.18478 116.739 -12.7408 146.832 18.8219C149.099 21.1992 149.426 22.8005 146.794 24.9565C144.842 26.5565 143.095 28.4259 141.39 30.2979C139.479 32.3899 138.05 32.3725 135.754 30.4192C110.447 8.83522 71.5737 16.3419 55.9617 45.7086C37.4137 80.5979 59.4857 121.777 98.8137 125.949Z" fill="white"/>
<path fill-rule="evenodd" clip-rule="evenodd" d="M102.178 19.4206C95.3984 20.7233 89.4864 22.3179 84.009 25.3433C57.7597 39.8473 52.525 74.6086 73.425 96.0699C89.5424 112.621 117.305 114.717 135.682 100.565C138.736 98.2139 140.677 97.8033 143.586 100.807C149.754 107.178 149.909 107.007 142.992 112.646C117.158 133.709 69.769 128.87 54.3904 89.3793C46.761 69.7886 53.333 45.7673 69.7317 32.1499C77.637 25.5873 86.5477 21.4233 96.5597 19.4353C98.165 19.1166 99.7584 18.718 102.178 19.4206Z" fill="white"/>
<path d="M150.671 60.7677H154.299L145.959 44.6477L137.255 60.7677H141.38L141.377 61.2543C141.359 63.621 141.104 65.9517 140.623 68.1837L140.601 68.285C140.519 68.745 140.385 69.2423 140.245 69.769C140.18 70.0143 140.113 70.2583 140.049 70.505C139.981 70.7237 139.916 70.9423 139.847 71.1623C139.681 71.701 139.525 72.209 139.348 72.661L139.305 72.777C138.869 74.025 138.3 75.3223 137.456 76.9783L137.185 77.473C136.905 77.9903 136.64 78.4757 136.351 78.9223C136.261 79.0637 136.176 79.2023 136.091 79.345C135.983 79.5197 135.876 79.701 135.777 79.849L135.016 80.957C134.809 81.2717 134.536 81.6223 134.248 81.997C134.075 82.2183 133.904 82.4383 133.74 82.6583C133.585 82.8383 133.433 83.0197 133.283 83.201C132.976 83.5677 132.668 83.9357 132.32 84.3063C130.856 85.8983 129.308 87.305 127.699 88.5277C127.577 88.6183 127.456 88.709 127.332 88.797C127.148 88.9343 126.96 89.0597 126.775 89.1903C121.211 93.009 114.364 95.0997 107.297 95.0997C97.7612 95.0997 88.6626 91.369 82.3332 84.8703C75.0226 77.361 71.6959 67.1997 73.2052 56.9903C74.7226 46.733 80.8892 37.9237 90.1239 32.821C94.4932 30.4077 99.1519 29.2957 103.535 28.4557L105.016 28.1703L103.568 27.749C102.86 27.545 102.193 27.445 101.525 27.445C100.747 27.445 100.081 27.5783 99.4372 27.7077L99.2159 27.7543C91.5772 29.2703 84.9959 32.3903 79.0932 37.2917C66.7199 47.5663 61.8759 65.6437 67.5759 80.2797C70.1359 86.8517 73.8212 92.0077 78.1146 95.965L78.0612 96.0423L78.5466 96.365C87.0426 103.968 97.8186 106.98 107.011 106.98C113.411 106.98 119.597 105.668 125.129 103.201L125.128 103.206C125.173 103.184 125.216 103.162 125.263 103.14C128.44 101.713 131.404 99.905 134.06 97.7397L134.12 97.689C135.949 96.197 137.081 95.269 137.64 94.4303C143.607 88.321 146.849 81.1597 148.608 75.0077C148.736 74.6023 148.855 74.1983 148.968 73.8077L149.167 73.1237L149.217 72.9343C149.276 72.6823 149.34 72.4277 149.403 72.1783C149.572 71.4997 149.747 70.7997 149.875 70.037C150.385 67.441 150.639 64.7637 150.664 62.065C150.683 61.377 150.675 60.929 150.671 60.7677Z" fill="white"/>
</svg>
