<svg width="284" height="313" viewBox="0 0 284 313" fill="none" xmlns="http://www.w3.org/2000/svg">
<path d="M15.7422 252.942C15.5137 254.897 14.79 256.408 13.5713 257.474C12.361 258.532 10.7487 259.061 8.73438 259.061C6.55078 259.061 4.79883 258.278 3.47852 256.713C2.16667 255.147 1.51074 253.052 1.51074 250.429V248.651C1.51074 246.933 1.81543 245.422 2.4248 244.119C3.04264 242.816 3.91439 241.817 5.04004 241.123C6.16569 240.42 7.46908 240.069 8.9502 240.069C10.9137 240.069 12.488 240.619 13.6729 241.72C14.8577 242.811 15.5475 244.326 15.7422 246.264H13.292C13.0804 244.792 12.6191 243.725 11.9082 243.065C11.2057 242.405 10.2197 242.075 8.9502 242.075C7.3929 242.075 6.16992 242.651 5.28125 243.802C4.40104 244.953 3.96094 246.59 3.96094 248.715V250.505C3.96094 252.511 4.37988 254.106 5.21777 255.291C6.05566 256.476 7.22786 257.068 8.73438 257.068C10.0885 257.068 11.1253 256.763 11.8447 256.154C12.5726 255.536 13.055 254.466 13.292 252.942H15.7422ZM33.2998 250.162C33.2998 251.973 32.9951 253.556 32.3857 254.91C31.7764 256.256 30.9131 257.284 29.7959 257.995C28.6787 258.706 27.3753 259.061 25.8857 259.061C24.43 259.061 23.1393 258.706 22.0137 257.995C20.888 257.276 20.012 256.256 19.3857 254.935C18.7679 253.607 18.4505 252.07 18.4336 250.327V248.994C18.4336 247.217 18.7425 245.647 19.3604 244.284C19.9782 242.921 20.8499 241.88 21.9756 241.161C23.1097 240.433 24.4046 240.069 25.8604 240.069C27.3415 240.069 28.6449 240.429 29.7705 241.148C30.9046 241.859 31.7764 242.896 32.3857 244.259C32.9951 245.613 33.2998 247.191 33.2998 248.994V250.162ZM30.875 248.969C30.875 246.777 30.4349 245.096 29.5547 243.929C28.6745 242.752 27.443 242.164 25.8604 242.164C24.32 242.164 23.1055 242.752 22.2168 243.929C21.3366 245.096 20.8838 246.721 20.8584 248.804V250.162C20.8584 252.286 21.3027 253.958 22.1914 255.177C23.0885 256.387 24.32 256.992 25.8857 256.992C27.46 256.992 28.6787 256.421 29.542 255.278C30.4053 254.127 30.8496 252.481 30.875 250.34V248.969ZM51.1621 258.807H48.7119L39.4062 244.563V258.807H36.9561V240.323H39.4062L48.7373 254.631V240.323H51.1621V258.807ZM60.9375 250.568C58.847 249.967 57.3236 249.231 56.3672 248.359C55.4193 247.479 54.9453 246.396 54.9453 245.109C54.9453 243.653 55.5251 242.452 56.6846 241.504C57.8525 240.547 59.3675 240.069 61.2295 240.069C62.499 240.069 63.6289 240.315 64.6191 240.805C65.6178 241.296 66.388 241.973 66.9297 242.837C67.4798 243.7 67.7549 244.644 67.7549 245.668H65.3047C65.3047 244.551 64.9492 243.675 64.2383 243.04C63.5273 242.397 62.5244 242.075 61.2295 242.075C60.0277 242.075 59.0882 242.342 58.4111 242.875C57.7425 243.4 57.4082 244.132 57.4082 245.071C57.4082 245.824 57.7256 246.463 58.3604 246.988C59.0036 247.504 60.0911 247.978 61.623 248.41C63.1634 248.842 64.3652 249.32 65.2285 249.845C66.1003 250.361 66.7435 250.966 67.1582 251.66C67.5814 252.354 67.793 253.171 67.793 254.11C67.793 255.608 67.209 256.81 66.041 257.716C64.873 258.613 63.3115 259.061 61.3564 259.061C60.0869 259.061 58.902 258.82 57.8018 258.338C56.7015 257.847 55.8509 257.178 55.25 256.332C54.6576 255.485 54.3613 254.525 54.3613 253.45H56.8115C56.8115 254.567 57.222 255.452 58.043 256.103C58.8724 256.747 59.9769 257.068 61.3564 257.068C62.6429 257.068 63.6289 256.806 64.3145 256.281C65 255.756 65.3428 255.041 65.3428 254.136C65.3428 253.23 65.0254 252.532 64.3906 252.041C63.7559 251.541 62.6048 251.051 60.9375 250.568ZM83.9414 240.323V252.891C83.9329 254.635 83.3828 256.061 82.291 257.17C81.2077 258.278 79.735 258.901 77.873 259.036L77.2256 259.061C75.2028 259.061 73.5905 258.515 72.3887 257.424C71.1868 256.332 70.5775 254.83 70.5605 252.917V240.323H72.9727V252.841C72.9727 254.178 73.3408 255.219 74.0771 255.964C74.8135 256.7 75.863 257.068 77.2256 257.068C78.6051 257.068 79.6589 256.7 80.3867 255.964C81.123 255.227 81.4912 254.191 81.4912 252.853V240.323H83.9414ZM90.2383 256.814H98.998V258.807H87.7881V240.323H90.2383V256.814ZM111.046 242.329H105.104V258.807H102.68V242.329H96.751V240.323H111.046V242.329ZM127.651 250.162C127.651 251.973 127.347 253.556 126.737 254.91C126.128 256.256 125.265 257.284 124.147 257.995C123.03 258.706 121.727 259.061 120.237 259.061C118.782 259.061 117.491 258.706 116.365 257.995C115.24 257.276 114.364 256.256 113.737 254.935C113.119 253.607 112.802 252.07 112.785 250.327V248.994C112.785 247.217 113.094 245.647 113.712 244.284C114.33 242.921 115.201 241.88 116.327 241.161C117.461 240.433 118.756 240.069 120.212 240.069C121.693 240.069 122.996 240.429 124.122 241.148C125.256 241.859 126.128 242.896 126.737 244.259C127.347 245.613 127.651 247.191 127.651 248.994V250.162ZM125.227 248.969C125.227 246.777 124.786 245.096 123.906 243.929C123.026 242.752 121.795 242.164 120.212 242.164C118.672 242.164 117.457 242.752 116.568 243.929C115.688 245.096 115.235 246.721 115.21 248.804V250.162C115.21 252.286 115.654 253.958 116.543 255.177C117.44 256.387 118.672 256.992 120.237 256.992C121.812 256.992 123.03 256.421 123.894 255.278C124.757 254.127 125.201 252.481 125.227 250.34V248.969ZM138.087 251.33H133.745V258.807H131.295V240.323H137.414C139.496 240.323 141.096 240.797 142.213 241.745C143.339 242.693 143.901 244.072 143.901 245.884C143.901 247.035 143.588 248.038 142.962 248.892C142.344 249.747 141.481 250.386 140.372 250.809L144.714 258.655V258.807H142.099L138.087 251.33ZM133.745 249.337H137.49C138.701 249.337 139.661 249.024 140.372 248.397C141.091 247.771 141.451 246.933 141.451 245.884C141.451 244.741 141.108 243.865 140.423 243.256C139.746 242.646 138.764 242.337 137.478 242.329H133.745V249.337ZM157.777 250.263H149.767V256.814H159.072V258.807H147.329V240.323H158.945V242.329H149.767V248.27H157.777V250.263ZM167.553 250.568C165.462 249.967 163.939 249.231 162.982 248.359C162.035 247.479 161.561 246.396 161.561 245.109C161.561 243.653 162.14 242.452 163.3 241.504C164.468 240.547 165.983 240.069 167.845 240.069C169.114 240.069 170.244 240.315 171.234 240.805C172.233 241.296 173.003 241.973 173.545 242.837C174.095 243.7 174.37 244.644 174.37 245.668H171.92C171.92 244.551 171.564 243.675 170.854 243.04C170.143 242.397 169.14 242.075 167.845 242.075C166.643 242.075 165.703 242.342 165.026 242.875C164.358 243.4 164.023 244.132 164.023 245.071C164.023 245.824 164.341 246.463 164.976 246.988C165.619 247.504 166.706 247.978 168.238 248.41C169.779 248.842 170.98 249.32 171.844 249.845C172.715 250.361 173.359 250.966 173.773 251.66C174.197 252.354 174.408 253.171 174.408 254.11C174.408 255.608 173.824 256.81 172.656 257.716C171.488 258.613 169.927 259.061 167.972 259.061C166.702 259.061 165.517 258.82 164.417 258.338C163.317 257.847 162.466 257.178 161.865 256.332C161.273 255.485 160.977 254.525 160.977 253.45H163.427C163.427 254.567 163.837 255.452 164.658 256.103C165.488 256.747 166.592 257.068 167.972 257.068C169.258 257.068 170.244 256.806 170.93 256.281C171.615 255.756 171.958 255.041 171.958 254.136C171.958 253.23 171.641 252.532 171.006 252.041C170.371 251.541 169.22 251.051 167.553 250.568ZM194.441 250.263H186.431V256.814H195.736V258.807H183.993V240.323H195.609V242.329H186.431V248.27H194.441V250.263ZM212.977 258.807H210.526L201.221 244.563V258.807H198.771V240.323H201.221L210.552 254.631V240.323H212.977V258.807Z" fill="#393536"/>
<path d="M14.115 288.383H5.26593L3.27851 293.895H0.406187L8.47191 272.773H10.909L18.9893 293.895H16.1314L14.115 288.383ZM6.10732 286.09H13.2881L9.69047 276.211L6.10732 286.09ZM24.6324 291.617H34.642V293.895H21.8326V272.773H24.6324V291.617ZM48.4088 275.065H41.6197V293.895H38.8489V275.065H32.0743V272.773H48.4088V275.065ZM62.0451 288.383H53.196L51.2086 293.895H48.3363L56.402 272.773H58.8391L66.9194 293.895H64.0615L62.0451 288.383ZM54.0374 286.09H61.2182L57.6206 276.211L54.0374 286.09ZM77.1321 293.895V272.773H83.0943C84.9318 272.773 86.5566 273.179 87.9686 273.992C89.3805 274.804 90.4685 275.96 91.2326 277.459C92.0063 278.958 92.3979 280.679 92.4076 282.623V283.972C92.4076 285.965 92.0208 287.71 91.2471 289.209C90.4831 290.708 89.3854 291.859 87.9541 292.662C86.5324 293.465 84.8738 293.876 82.9783 293.895H77.1321ZM79.9174 275.065V291.617H82.8477C84.9947 291.617 86.663 290.95 87.8525 289.616C89.0517 288.281 89.6513 286.381 89.6513 283.914V282.681C89.6513 280.283 89.0856 278.421 87.9541 277.096C86.8322 275.762 85.2365 275.085 83.1668 275.065H79.9174ZM99.6174 293.895H96.8322V272.773H99.6174V293.895ZM112.47 285.351H107.509V293.895H104.709V272.773H111.702C114.081 272.773 115.908 273.315 117.185 274.398C118.471 275.481 119.114 277.058 119.114 279.127C119.114 280.443 118.757 281.589 118.041 282.565C117.335 283.542 116.348 284.272 115.082 284.756L120.043 293.721V293.895H117.054L112.47 285.351ZM107.509 283.073H111.789C113.172 283.073 114.269 282.715 115.082 282C115.904 281.284 116.315 280.326 116.315 279.127C116.315 277.822 115.923 276.821 115.14 276.124C114.366 275.428 113.244 275.075 111.774 275.065H107.509V283.073ZM134.97 284.132H125.817V291.617H136.45V293.895H123.031V272.773H136.305V275.065H125.817V281.854H134.97V284.132ZM155.454 287.193C155.193 289.427 154.366 291.153 152.973 292.372C151.59 293.581 149.748 294.185 147.446 294.185C144.951 294.185 142.949 293.291 141.44 291.501C139.941 289.712 139.192 287.319 139.192 284.321V282.29C139.192 280.326 139.54 278.6 140.236 277.111C140.942 275.621 141.938 274.48 143.225 273.687C144.511 272.885 146 272.483 147.693 272.483C149.936 272.483 151.735 273.112 153.089 274.369C154.443 275.617 155.231 277.348 155.454 279.562H152.654C152.412 277.88 151.885 276.661 151.073 275.907C150.27 275.152 149.143 274.775 147.693 274.775C145.913 274.775 144.516 275.433 143.5 276.748C142.494 278.063 141.991 279.935 141.991 282.362V284.408C141.991 286.7 142.47 288.523 143.428 289.877C144.385 291.231 145.725 291.908 147.446 291.908C148.993 291.908 150.178 291.559 151 290.863C151.832 290.157 152.383 288.934 152.654 287.193H155.454ZM174.806 287.193C174.544 289.427 173.718 291.153 172.325 292.372C170.942 293.581 169.1 294.185 166.798 294.185C164.303 294.185 162.301 293.291 160.792 291.501C159.293 289.712 158.544 287.319 158.544 284.321V282.29C158.544 280.326 158.892 278.6 159.588 277.111C160.294 275.621 161.29 274.48 162.576 273.687C163.863 272.885 165.352 272.483 167.045 272.483C169.288 272.483 171.087 273.112 172.441 274.369C173.795 275.617 174.583 277.348 174.806 279.562H172.006C171.764 277.88 171.237 276.661 170.425 275.907C169.622 275.152 168.495 274.775 167.045 274.775C165.265 274.775 163.868 275.433 162.852 276.748C161.846 278.063 161.343 279.935 161.343 282.362V284.408C161.343 286.7 161.822 288.523 162.78 289.877C163.737 291.231 165.076 291.908 166.798 291.908C168.345 291.908 169.53 291.559 170.352 290.863C171.184 290.157 171.735 288.934 172.006 287.193H174.806ZM181.609 293.895H178.824V272.773H181.609V293.895ZM181.522 266.942H184.772L180.884 271.207H178.722L181.522 266.942ZM202.963 284.016C202.963 286.086 202.615 287.894 201.919 289.441C201.222 290.979 200.236 292.154 198.959 292.967C197.683 293.779 196.193 294.185 194.491 294.185C192.828 294.185 191.353 293.779 190.067 292.967C188.78 292.145 187.779 290.979 187.064 289.471C186.358 287.952 185.995 286.197 185.976 284.205V282.681C185.976 280.65 186.329 278.856 187.035 277.299C187.741 275.742 188.737 274.553 190.023 273.731C191.319 272.899 192.799 272.483 194.462 272.483C196.155 272.483 197.644 272.894 198.93 273.716C200.226 274.529 201.222 275.713 201.919 277.27C202.615 278.818 202.963 280.621 202.963 282.681V284.016ZM200.192 282.652C200.192 280.148 199.689 278.228 198.684 276.893C197.678 275.549 196.271 274.877 194.462 274.877C192.702 274.877 191.314 275.549 190.299 276.893C189.293 278.228 188.776 280.085 188.747 282.464V284.016C188.747 286.443 189.254 288.353 190.27 289.746C191.295 291.129 192.702 291.821 194.491 291.821C196.29 291.821 197.683 291.168 198.669 289.862C199.656 288.547 200.163 286.666 200.192 284.219V282.652ZM223.374 293.895H220.574L209.941 277.619V293.895H207.141V272.773H209.941L220.603 289.122V272.773H223.374V293.895Z" fill="#393536"/>
<path fill-rule="evenodd" clip-rule="evenodd" d="M148.156 223.678C124.565 223.59 103.3 216.068 84.8356 201.27C43.5943 168.216 30.5409 113.765 51.9316 65.4465C83.4036 -5.65616 179.99 -22.6268 233.434 33.4265C237.46 37.6492 238.04 40.4905 233.366 44.3198C229.9 47.1625 226.797 50.4838 223.766 53.8065C220.377 57.5225 217.836 57.4932 213.76 54.0212C168.813 15.6892 99.7783 29.0225 72.0516 81.1772C39.1103 143.14 78.3103 216.27 148.156 223.678Z" fill="#4391CF"/>
<path fill-rule="evenodd" clip-rule="evenodd" d="M154.13 34.4897C142.09 36.803 131.59 39.635 121.864 45.0084C75.2436 70.767 65.9476 132.502 103.064 170.615C131.69 200.01 180.994 203.734 213.632 178.599C219.056 174.423 222.504 173.694 227.668 179.027C238.624 190.344 238.898 190.04 226.614 200.055C180.737 237.462 96.5743 228.867 69.2623 158.734C55.713 123.94 67.3836 81.2804 96.5063 57.0977C110.546 45.4404 126.372 38.047 144.153 34.515C147.005 33.9497 149.83 33.2417 154.13 34.4897Z" fill="#2C5787"/>
<path d="M240.251 107.92H246.695L231.881 79.292L216.426 107.92H223.751L223.746 108.784C223.711 112.987 223.262 117.125 222.406 121.088L222.37 121.271C222.222 122.088 221.985 122.972 221.734 123.907C221.618 124.341 221.502 124.777 221.39 125.212C221.267 125.601 221.149 125.991 221.029 126.38C220.734 127.337 220.457 128.24 220.142 129.043L220.066 129.248C219.294 131.465 218.281 133.769 216.782 136.711L216.301 137.589C215.803 138.505 215.333 139.369 214.819 140.161C214.662 140.412 214.51 140.66 214.358 140.911C214.167 141.224 213.977 141.544 213.801 141.808L212.449 143.776C212.083 144.335 211.597 144.957 211.083 145.621C210.777 146.015 210.474 146.407 210.181 146.796C209.907 147.116 209.639 147.44 209.37 147.761C208.823 148.412 208.279 149.067 207.662 149.724C205.059 152.549 202.31 155.049 199.454 157.221C199.238 157.381 199.022 157.543 198.803 157.7C198.475 157.943 198.142 158.165 197.813 158.399C187.931 165.179 175.771 168.892 163.221 168.892C146.287 168.892 130.127 162.268 118.886 150.727C105.901 137.391 99.9926 119.344 102.675 101.211C105.371 82.9947 116.323 67.3507 132.722 58.2867C140.483 54.0013 148.755 52.028 156.539 50.5347L159.169 50.028L156.597 49.2813C155.341 48.92 154.155 48.7413 152.969 48.7413C151.587 48.7413 150.405 48.9773 149.261 49.2067L148.867 49.2893C135.305 51.9827 123.615 57.5227 113.133 66.2267C91.1566 84.4747 82.5553 116.581 92.678 142.572C97.2233 154.245 103.77 163.4 111.394 170.429L111.299 170.568L112.163 171.141C127.251 184.643 146.389 189.991 162.713 189.991C174.078 189.991 185.066 187.66 194.89 183.281L194.887 183.289C194.969 183.252 195.045 183.211 195.127 183.172C200.77 180.637 206.034 177.425 210.751 173.581L210.859 173.492C214.106 170.841 216.115 169.193 217.109 167.703C227.706 156.855 233.466 144.135 236.587 133.209C236.813 132.491 237.026 131.775 237.225 131.08L237.581 129.863L237.669 129.528C237.774 129.079 237.887 128.629 237.998 128.183C238.298 126.979 238.607 125.736 238.838 124.381C239.745 119.772 240.195 115.017 240.238 110.224C240.273 109.003 240.259 108.208 240.251 107.92Z" fill="#EF2E32"/>
</svg>
