<svg width="300" height="300" viewBox="0 0 300 300" fill="none" xmlns="http://www.w3.org/2000/svg">
<circle cx="150" cy="150" r="150" fill="white"/>
<path fill-rule="evenodd" clip-rule="evenodd" d="M154.383 261.678C130.792 261.59 109.527 254.068 91.0628 239.27C49.8215 206.216 36.7682 151.765 58.1588 103.447C89.6308 32.3438 186.218 15.3732 239.662 71.4265C243.687 75.6492 244.267 78.4905 239.594 82.3198C236.127 85.1625 233.024 88.4838 229.994 91.8065C226.604 95.5225 224.063 95.4932 219.987 92.0212C175.04 53.6892 106.006 67.0225 78.2788 119.177C45.3375 181.14 84.5375 254.27 154.383 261.678Z" fill="#4391CF"/>
<path fill-rule="evenodd" clip-rule="evenodd" d="M160.358 72.4897C148.318 74.803 137.818 77.635 128.091 83.0084C81.4709 108.767 72.1749 170.502 109.291 208.615C137.918 238.01 187.222 241.734 219.859 216.599C225.283 212.423 228.731 211.694 233.895 217.027C244.851 228.344 245.126 228.04 232.842 238.055C186.964 275.462 102.802 266.867 75.4895 196.734C61.9402 161.94 73.6109 119.28 102.734 95.0977C116.774 83.4404 132.599 76.047 150.38 72.515C153.232 71.9497 156.058 71.2417 160.358 72.4897Z" fill="#2C5787"/>
<path d="M246.479 145.92H252.923L238.108 117.292L222.653 145.92H229.979L229.973 146.784C229.939 150.987 229.489 155.125 228.633 159.088L228.597 159.271C228.449 160.088 228.212 160.972 227.961 161.907C227.845 162.341 227.729 162.777 227.617 163.212C227.495 163.601 227.376 163.991 227.256 164.38C226.961 165.337 226.684 166.24 226.369 167.043L226.293 167.248C225.521 169.465 224.508 171.769 223.009 174.711L222.528 175.589C222.031 176.505 221.56 177.369 221.047 178.161C220.889 178.412 220.737 178.66 220.585 178.911C220.395 179.224 220.204 179.544 220.028 179.808L218.676 181.776C218.311 182.335 217.824 182.957 217.311 183.621C217.004 184.015 216.701 184.407 216.408 184.796C216.135 185.116 215.867 185.44 215.597 185.761C215.051 186.412 214.507 187.067 213.889 187.724C211.287 190.549 208.537 193.049 205.681 195.221C205.465 195.381 205.249 195.543 205.031 195.7C204.703 195.943 204.369 196.165 204.04 196.399C194.159 203.179 181.999 206.892 169.448 206.892C152.515 206.892 136.355 200.268 125.113 188.727C112.128 175.391 106.22 157.344 108.903 139.211C111.599 120.995 122.551 105.351 138.949 96.2867C146.711 92.0013 154.983 90.028 162.767 88.5347L165.396 88.028L162.824 87.2813C161.568 86.92 160.383 86.7413 159.196 86.7413C157.815 86.7413 156.632 86.9773 155.488 87.2067L155.095 87.2893C141.532 89.9827 129.843 95.5227 119.36 104.227C97.3839 122.475 88.7825 154.581 98.9052 180.572C103.451 192.245 109.997 201.4 117.621 208.429L117.527 208.568L118.391 209.141C133.479 222.643 152.616 227.991 168.94 227.991C180.305 227.991 191.293 225.66 201.117 221.281L201.115 221.289C201.196 221.252 201.272 221.211 201.355 221.172C206.997 218.637 212.261 215.425 216.979 211.581L217.087 211.492C220.333 208.841 222.343 207.193 223.336 205.703C233.933 194.855 239.693 182.135 242.815 171.209C243.04 170.491 243.253 169.775 243.452 169.08L243.808 167.863L243.896 167.528C244.001 167.079 244.115 166.629 244.225 166.183C244.525 164.979 244.835 163.736 245.065 162.381C245.972 157.772 246.423 153.017 246.465 148.224C246.5 147.003 246.487 146.208 246.479 145.92Z" fill="#EF2E32"/>
</svg>
